<?xml version="1.0" encoding="UTF-8"?>
<svg version="1.1" xmlns="http://www.w3.org/2000/svg" width="500" height="500">
<path d="M0 0 C60.81718415 0 60.81718415 0 70.21484375 9.01171875 C78.52708727 18.26977554 80.69367542 27.45473845 80.375 39.6953125 C79.7808611 49.32460648 75.17180885 57.65218621 68 64 C64.75630704 66.3493414 62.11484724 68 58 68 C62.47473918 76.16588348 66.98336206 84.30512989 71.7109375 92.328125 C72.3385498 93.39353516 72.96616211 94.45894531 73.61279297 95.55664062 C74.8542135 97.65725906 76.10050369 99.75500855 77.35205078 101.84960938 C77.92681152 102.82220703 78.50157227 103.79480469 79.09375 104.796875 C79.86235352 106.08609863 79.86235352 106.08609863 80.64648438 107.40136719 C82 110 82 110 84 116 C75.09 116 66.18 116 57 116 C51.6875 106.25 51.6875 106.25 49.92553711 103.01367188 C47.22065574 98.05045951 44.50303626 93.09510868 41.75390625 88.15625 C40.99557495 86.79064941 40.99557495 86.79064941 40.22192383 85.39746094 C39.25259161 83.65398134 38.27985559 81.91238914 37.3034668 80.17285156 C36.8681665 79.3887793 36.43286621 78.60470703 35.984375 77.796875 C35.59991211 77.10948242 35.21544922 76.42208984 34.81933594 75.71386719 C34 74 34 74 34 72 C30.7 72 27.4 72 24 72 C24 86.52 24 101.04 24 116 C16.08 116 8.16 116 0 116 C0 77.72 0 39.44 0 0 Z M24 24 C24 32.25 24 40.5 24 49 C27.526875 49.061875 31.05375 49.12375 34.6875 49.1875 C35.79053467 49.21481201 36.89356934 49.24212402 38.0300293 49.27026367 C44.36653546 49.32416425 47.86235489 48.68941009 52.75 44.5 C55.61116789 41.06659853 55.35360668 37.24328013 55 33 C53.72474765 29.71606 52.21283834 26.7990271 49.19824219 24.81298828 C46.53094312 23.82652606 44.42004963 23.77311056 41.578125 23.8046875 C40.65418945 23.80968262 39.73025391 23.81467773 38.77832031 23.81982422 C37.03180176 23.84713623 37.03180176 23.84713623 35.25 23.875 C29.68125 23.936875 29.68125 23.936875 24 24 Z " fill="#F6F6F6" transform="translate(370,169)"/>
<path d="M0 0 C0.71309326 0.07371826 1.42618652 0.14743652 2.16088867 0.22338867 C7.01323662 0.82619634 10.89842981 2.14420505 15.3125 4.25 C14.22781391 23.26662429 14.22781391 23.26662429 13.3125 28.25 C12.6525 28.58 11.9925 28.91 11.3125 29.25 C9.75066708 28.6545886 8.21253111 27.9966907 6.6875 27.3125 C-2.04897816 24.01766527 -12.3208975 23.65659063 -21.1875 26.8125 C-30.87813055 31.51148025 -35.79199653 38.31443016 -39.6875 48.25 C-40.66100778 51.8865731 -40.66100778 51.8865731 -40.6875 55.25 C-40.77 56.4875 -40.8525 57.725 -40.9375 59 C-40.77432313 68.35547388 -37.42374842 77.02922488 -31.16015625 83.93359375 C-23.84078285 90.83963783 -15.67838143 92.80361878 -5.81420898 92.73583984 C0.05236898 92.50921294 5.3054718 91.10114655 10.8359375 89.125 C13.3125 88.25 13.3125 88.25 15.3125 88.25 C16.3025 96.5 17.2925 104.75 18.3125 113.25 C4.20586801 117.80526658 4.20586801 117.80526658 -2.6875 118.25 C-3.48027344 118.3015625 -4.27304688 118.353125 -5.08984375 118.40625 C-22.30465454 119.01293937 -37.93338573 113.74932945 -50.6875 102.25 C-64.39674045 87.23610374 -67.73112272 70.43681654 -66.8828125 50.78076172 C-65.75849692 36.21244257 -58.29051511 23.06536255 -47.6875 13.25 C-46.6975 12.92 -45.7075 12.59 -44.6875 12.25 C-44.6875 11.59 -44.6875 10.93 -44.6875 10.25 C-36.20675637 5.67090026 -28.27067402 1.96176245 -18.6875 0.25 C-17.90503906 0.09660156 -17.12257812 -0.05679688 -16.31640625 -0.21484375 C-10.80948782 -1.04134584 -5.50370243 -0.59312491 0 0 Z " fill="#F2F2F2" transform="translate(117.6875,167.75)"/>
<path d="M0 0 C7.92 0 15.84 0 24 0 C24 30.36 24 60.72 24 92 C35.88 92 47.76 92 60 92 C61.57029041 99.85145204 61 107.99305857 61 116 C40.87 116 20.74 116 0 116 C-0.88034881 92.23058225 -1.11307802 68.49634892 -1.12338257 44.71432495 C-1.12499847 42.25233564 -1.12855976 39.79035563 -1.13256836 37.32836914 C-1.13846418 33.38581379 -1.13861736 29.44329714 -1.13431931 25.50074005 C-1.13332663 24.02826203 -1.13390069 22.55578199 -1.13615799 21.08330536 C-1.13873163 19.0375954 -1.1348701 16.9919913 -1.12939453 14.94628906 C-1.12859894 13.79356506 -1.12780334 12.64084106 -1.12698364 11.45318604 C-0.98601198 7.6196106 -0.4758179 3.80654317 0 0 Z " fill="#F5F5F5" transform="translate(222,169)"/>
</svg>
